G04 #@! TF.GenerationSoftware,KiCad,Pcbnew,5.1.5-52549c5~86~ubuntu18.04.1*
G04 #@! TF.CreationDate,2020-04-08T17:49:12+09:00*
G04 #@! TF.ProjectId,MRR_PiFan,4d52525f-5069-4466-916e-2e6b69636164,rev?*
G04 #@! TF.SameCoordinates,Original*
G04 #@! TF.FileFunction,Legend,Bot*
G04 #@! TF.FilePolarity,Positive*
%FSLAX46Y46*%
G04 Gerber Fmt 4.6, Leading zero omitted, Abs format (unit mm)*
G04 Created by KiCad (PCBNEW 5.1.5-52549c5~86~ubuntu18.04.1) date 2020-04-08 17:49:12*
%MOMM*%
%LPD*%
G04 APERTURE LIST*
%ADD10C,0.200000*%
%ADD11C,0.120000*%
%ADD12C,0.150000*%
G04 APERTURE END LIST*
D10*
X113386714Y-141549380D02*
X113386714Y-140549380D01*
X113053380Y-141263666D01*
X112720047Y-140549380D01*
X112720047Y-141549380D01*
X111672428Y-141549380D02*
X112005761Y-141073190D01*
X112243857Y-141549380D02*
X112243857Y-140549380D01*
X111862904Y-140549380D01*
X111767666Y-140597000D01*
X111720047Y-140644619D01*
X111672428Y-140739857D01*
X111672428Y-140882714D01*
X111720047Y-140977952D01*
X111767666Y-141025571D01*
X111862904Y-141073190D01*
X112243857Y-141073190D01*
X110672428Y-141549380D02*
X111005761Y-141073190D01*
X111243857Y-141549380D02*
X111243857Y-140549380D01*
X110862904Y-140549380D01*
X110767666Y-140597000D01*
X110720047Y-140644619D01*
X110672428Y-140739857D01*
X110672428Y-140882714D01*
X110720047Y-140977952D01*
X110767666Y-141025571D01*
X110862904Y-141073190D01*
X111243857Y-141073190D01*
X109481952Y-141549380D02*
X109481952Y-140549380D01*
X109101000Y-140549380D01*
X109005761Y-140597000D01*
X108958142Y-140644619D01*
X108910523Y-140739857D01*
X108910523Y-140882714D01*
X108958142Y-140977952D01*
X109005761Y-141025571D01*
X109101000Y-141073190D01*
X109481952Y-141073190D01*
X108481952Y-141549380D02*
X108481952Y-140882714D01*
X108481952Y-140549380D02*
X108529571Y-140597000D01*
X108481952Y-140644619D01*
X108434333Y-140597000D01*
X108481952Y-140549380D01*
X108481952Y-140644619D01*
X107672428Y-141025571D02*
X108005761Y-141025571D01*
X108005761Y-141549380D02*
X108005761Y-140549380D01*
X107529571Y-140549380D01*
X106720047Y-141549380D02*
X106720047Y-141025571D01*
X106767666Y-140930333D01*
X106862904Y-140882714D01*
X107053380Y-140882714D01*
X107148619Y-140930333D01*
X106720047Y-141501761D02*
X106815285Y-141549380D01*
X107053380Y-141549380D01*
X107148619Y-141501761D01*
X107196238Y-141406523D01*
X107196238Y-141311285D01*
X107148619Y-141216047D01*
X107053380Y-141168428D01*
X106815285Y-141168428D01*
X106720047Y-141120809D01*
X106243857Y-140882714D02*
X106243857Y-141549380D01*
X106243857Y-140977952D02*
X106196238Y-140930333D01*
X106101000Y-140882714D01*
X105958142Y-140882714D01*
X105862904Y-140930333D01*
X105815285Y-141025571D01*
X105815285Y-141549380D01*
X114324619Y-145497571D02*
X114324619Y-146030904D01*
X114667476Y-145497571D02*
X114667476Y-145916619D01*
X114629380Y-145992809D01*
X114553190Y-146030904D01*
X114438904Y-146030904D01*
X114362714Y-145992809D01*
X114324619Y-145954714D01*
X113943666Y-145497571D02*
X113943666Y-146030904D01*
X113943666Y-145573761D02*
X113905571Y-145535666D01*
X113829380Y-145497571D01*
X113715095Y-145497571D01*
X113638904Y-145535666D01*
X113600809Y-145611857D01*
X113600809Y-146030904D01*
X112876999Y-146030904D02*
X112876999Y-145230904D01*
X112876999Y-145992809D02*
X112953190Y-146030904D01*
X113105571Y-146030904D01*
X113181761Y-145992809D01*
X113219857Y-145954714D01*
X113257952Y-145878523D01*
X113257952Y-145649952D01*
X113219857Y-145573761D01*
X113181761Y-145535666D01*
X113105571Y-145497571D01*
X112953190Y-145497571D01*
X112876999Y-145535666D01*
X112191285Y-145992809D02*
X112267476Y-146030904D01*
X112419857Y-146030904D01*
X112496047Y-145992809D01*
X112534142Y-145916619D01*
X112534142Y-145611857D01*
X112496047Y-145535666D01*
X112419857Y-145497571D01*
X112267476Y-145497571D01*
X112191285Y-145535666D01*
X112153190Y-145611857D01*
X112153190Y-145688047D01*
X112534142Y-145764238D01*
X111810333Y-146030904D02*
X111810333Y-145497571D01*
X111810333Y-145649952D02*
X111772238Y-145573761D01*
X111734142Y-145535666D01*
X111657952Y-145497571D01*
X111581761Y-145497571D01*
X110248428Y-145954714D02*
X110286523Y-145992809D01*
X110400809Y-146030904D01*
X110476999Y-146030904D01*
X110591285Y-145992809D01*
X110667476Y-145916619D01*
X110705571Y-145840428D01*
X110743666Y-145688047D01*
X110743666Y-145573761D01*
X110705571Y-145421380D01*
X110667476Y-145345190D01*
X110591285Y-145269000D01*
X110476999Y-145230904D01*
X110400809Y-145230904D01*
X110286523Y-145269000D01*
X110248428Y-145307095D01*
X109905571Y-145611857D02*
X109638904Y-145611857D01*
X109524619Y-146030904D02*
X109905571Y-146030904D01*
X109905571Y-145230904D01*
X109524619Y-145230904D01*
X108724619Y-146030904D02*
X108991285Y-145649952D01*
X109181761Y-146030904D02*
X109181761Y-145230904D01*
X108876999Y-145230904D01*
X108800809Y-145269000D01*
X108762714Y-145307095D01*
X108724619Y-145383285D01*
X108724619Y-145497571D01*
X108762714Y-145573761D01*
X108800809Y-145611857D01*
X108876999Y-145649952D01*
X109181761Y-145649952D01*
X108381761Y-146030904D02*
X108381761Y-145230904D01*
X107924619Y-146030904D01*
X107924619Y-145230904D01*
X106781761Y-145230904D02*
X106629380Y-145230904D01*
X106553190Y-145269000D01*
X106476999Y-145345190D01*
X106438904Y-145497571D01*
X106438904Y-145764238D01*
X106476999Y-145916619D01*
X106553190Y-145992809D01*
X106629380Y-146030904D01*
X106781761Y-146030904D01*
X106857952Y-145992809D01*
X106934142Y-145916619D01*
X106972238Y-145764238D01*
X106972238Y-145497571D01*
X106934142Y-145345190D01*
X106857952Y-145269000D01*
X106781761Y-145230904D01*
X106096047Y-146030904D02*
X106096047Y-145230904D01*
X106096047Y-145611857D02*
X105638904Y-145611857D01*
X105638904Y-146030904D02*
X105638904Y-145230904D01*
X104876999Y-146030904D02*
X105257952Y-146030904D01*
X105257952Y-145230904D01*
X104076999Y-145497571D02*
X103886523Y-146030904D01*
X103696047Y-145497571D01*
X103391285Y-145954714D02*
X103353190Y-145992809D01*
X103391285Y-146030904D01*
X103429380Y-145992809D01*
X103391285Y-145954714D01*
X103391285Y-146030904D01*
X102591285Y-146030904D02*
X103048428Y-146030904D01*
X102819857Y-146030904D02*
X102819857Y-145230904D01*
X102896047Y-145345190D01*
X102972238Y-145421380D01*
X103048428Y-145459476D01*
X102248428Y-145954714D02*
X102210333Y-145992809D01*
X102248428Y-146030904D01*
X102286523Y-145992809D01*
X102248428Y-145954714D01*
X102248428Y-146030904D01*
X101905571Y-145307095D02*
X101867476Y-145269000D01*
X101791285Y-145230904D01*
X101600809Y-145230904D01*
X101524619Y-145269000D01*
X101486523Y-145307095D01*
X101448428Y-145383285D01*
X101448428Y-145459476D01*
X101486523Y-145573761D01*
X101943666Y-146030904D01*
X101448428Y-146030904D01*
X117321571Y-146500904D02*
X117054904Y-147300904D01*
X116788238Y-146500904D01*
X116216809Y-147262809D02*
X116293000Y-147300904D01*
X116445380Y-147300904D01*
X116521571Y-147262809D01*
X116559666Y-147186619D01*
X116559666Y-146881857D01*
X116521571Y-146805666D01*
X116445380Y-146767571D01*
X116293000Y-146767571D01*
X116216809Y-146805666D01*
X116178714Y-146881857D01*
X116178714Y-146958047D01*
X116559666Y-147034238D01*
X115835857Y-147300904D02*
X115835857Y-146767571D01*
X115835857Y-146919952D02*
X115797761Y-146843761D01*
X115759666Y-146805666D01*
X115683476Y-146767571D01*
X115607285Y-146767571D01*
X115378714Y-147262809D02*
X115302523Y-147300904D01*
X115150142Y-147300904D01*
X115073952Y-147262809D01*
X115035857Y-147186619D01*
X115035857Y-147148523D01*
X115073952Y-147072333D01*
X115150142Y-147034238D01*
X115264428Y-147034238D01*
X115340619Y-146996142D01*
X115378714Y-146919952D01*
X115378714Y-146881857D01*
X115340619Y-146805666D01*
X115264428Y-146767571D01*
X115150142Y-146767571D01*
X115073952Y-146805666D01*
X114693000Y-147300904D02*
X114693000Y-146767571D01*
X114693000Y-146500904D02*
X114731095Y-146539000D01*
X114693000Y-146577095D01*
X114654904Y-146539000D01*
X114693000Y-146500904D01*
X114693000Y-146577095D01*
X114197761Y-147300904D02*
X114273952Y-147262809D01*
X114312047Y-147224714D01*
X114350142Y-147148523D01*
X114350142Y-146919952D01*
X114312047Y-146843761D01*
X114273952Y-146805666D01*
X114197761Y-146767571D01*
X114083476Y-146767571D01*
X114007285Y-146805666D01*
X113969190Y-146843761D01*
X113931095Y-146919952D01*
X113931095Y-147148523D01*
X113969190Y-147224714D01*
X114007285Y-147262809D01*
X114083476Y-147300904D01*
X114197761Y-147300904D01*
X113588238Y-146767571D02*
X113588238Y-147300904D01*
X113588238Y-146843761D02*
X113550142Y-146805666D01*
X113473952Y-146767571D01*
X113359666Y-146767571D01*
X113283476Y-146805666D01*
X113245380Y-146881857D01*
X113245380Y-147300904D01*
X111912047Y-147300904D02*
X111912047Y-146500904D01*
X111912047Y-147262809D02*
X111988238Y-147300904D01*
X112140619Y-147300904D01*
X112216809Y-147262809D01*
X112254904Y-147224714D01*
X112293000Y-147148523D01*
X112293000Y-146919952D01*
X112254904Y-146843761D01*
X112216809Y-146805666D01*
X112140619Y-146767571D01*
X111988238Y-146767571D01*
X111912047Y-146805666D01*
X111188238Y-147300904D02*
X111188238Y-146881857D01*
X111226333Y-146805666D01*
X111302523Y-146767571D01*
X111454904Y-146767571D01*
X111531095Y-146805666D01*
X111188238Y-147262809D02*
X111264428Y-147300904D01*
X111454904Y-147300904D01*
X111531095Y-147262809D01*
X111569190Y-147186619D01*
X111569190Y-147110428D01*
X111531095Y-147034238D01*
X111454904Y-146996142D01*
X111264428Y-146996142D01*
X111188238Y-146958047D01*
X110921571Y-146767571D02*
X110616809Y-146767571D01*
X110807285Y-146500904D02*
X110807285Y-147186619D01*
X110769190Y-147262809D01*
X110693000Y-147300904D01*
X110616809Y-147300904D01*
X110045380Y-147262809D02*
X110121571Y-147300904D01*
X110273952Y-147300904D01*
X110350142Y-147262809D01*
X110388238Y-147186619D01*
X110388238Y-146881857D01*
X110350142Y-146805666D01*
X110273952Y-146767571D01*
X110121571Y-146767571D01*
X110045380Y-146805666D01*
X110007285Y-146881857D01*
X110007285Y-146958047D01*
X110388238Y-147034238D01*
X109664428Y-147224714D02*
X109626333Y-147262809D01*
X109664428Y-147300904D01*
X109702523Y-147262809D01*
X109664428Y-147224714D01*
X109664428Y-147300904D01*
X109664428Y-146805666D02*
X109626333Y-146843761D01*
X109664428Y-146881857D01*
X109702523Y-146843761D01*
X109664428Y-146805666D01*
X109664428Y-146881857D01*
X108712047Y-146577095D02*
X108673952Y-146539000D01*
X108597761Y-146500904D01*
X108407285Y-146500904D01*
X108331095Y-146539000D01*
X108293000Y-146577095D01*
X108254904Y-146653285D01*
X108254904Y-146729476D01*
X108293000Y-146843761D01*
X108750142Y-147300904D01*
X108254904Y-147300904D01*
X107759666Y-146500904D02*
X107683476Y-146500904D01*
X107607285Y-146539000D01*
X107569190Y-146577095D01*
X107531095Y-146653285D01*
X107493000Y-146805666D01*
X107493000Y-146996142D01*
X107531095Y-147148523D01*
X107569190Y-147224714D01*
X107607285Y-147262809D01*
X107683476Y-147300904D01*
X107759666Y-147300904D01*
X107835857Y-147262809D01*
X107873952Y-147224714D01*
X107912047Y-147148523D01*
X107950142Y-146996142D01*
X107950142Y-146805666D01*
X107912047Y-146653285D01*
X107873952Y-146577095D01*
X107835857Y-146539000D01*
X107759666Y-146500904D01*
X107188238Y-146577095D02*
X107150142Y-146539000D01*
X107073952Y-146500904D01*
X106883476Y-146500904D01*
X106807285Y-146539000D01*
X106769190Y-146577095D01*
X106731095Y-146653285D01*
X106731095Y-146729476D01*
X106769190Y-146843761D01*
X107226333Y-147300904D01*
X106731095Y-147300904D01*
X106235857Y-146500904D02*
X106159666Y-146500904D01*
X106083476Y-146539000D01*
X106045380Y-146577095D01*
X106007285Y-146653285D01*
X105969190Y-146805666D01*
X105969190Y-146996142D01*
X106007285Y-147148523D01*
X106045380Y-147224714D01*
X106083476Y-147262809D01*
X106159666Y-147300904D01*
X106235857Y-147300904D01*
X106312047Y-147262809D01*
X106350142Y-147224714D01*
X106388238Y-147148523D01*
X106426333Y-146996142D01*
X106426333Y-146805666D01*
X106388238Y-146653285D01*
X106350142Y-146577095D01*
X106312047Y-146539000D01*
X106235857Y-146500904D01*
X105626333Y-146996142D02*
X105016809Y-146996142D01*
X104483476Y-146500904D02*
X104407285Y-146500904D01*
X104331095Y-146539000D01*
X104293000Y-146577095D01*
X104254904Y-146653285D01*
X104216809Y-146805666D01*
X104216809Y-146996142D01*
X104254904Y-147148523D01*
X104293000Y-147224714D01*
X104331095Y-147262809D01*
X104407285Y-147300904D01*
X104483476Y-147300904D01*
X104559666Y-147262809D01*
X104597761Y-147224714D01*
X104635857Y-147148523D01*
X104673952Y-146996142D01*
X104673952Y-146805666D01*
X104635857Y-146653285D01*
X104597761Y-146577095D01*
X104559666Y-146539000D01*
X104483476Y-146500904D01*
X103531095Y-146767571D02*
X103531095Y-147300904D01*
X103721571Y-146462809D02*
X103912047Y-147034238D01*
X103416809Y-147034238D01*
X103112047Y-146996142D02*
X102502523Y-146996142D01*
X101969190Y-146500904D02*
X101893000Y-146500904D01*
X101816809Y-146539000D01*
X101778714Y-146577095D01*
X101740619Y-146653285D01*
X101702523Y-146805666D01*
X101702523Y-146996142D01*
X101740619Y-147148523D01*
X101778714Y-147224714D01*
X101816809Y-147262809D01*
X101893000Y-147300904D01*
X101969190Y-147300904D01*
X102045380Y-147262809D01*
X102083476Y-147224714D01*
X102121571Y-147148523D01*
X102159666Y-146996142D01*
X102159666Y-146805666D01*
X102121571Y-146653285D01*
X102083476Y-146577095D01*
X102045380Y-146539000D01*
X101969190Y-146500904D01*
X101435857Y-146500904D02*
X100902523Y-146500904D01*
X101245380Y-147300904D01*
X113404095Y-143425904D02*
X113404095Y-142625904D01*
X113404095Y-142930666D02*
X113327904Y-142892571D01*
X113175523Y-142892571D01*
X113099333Y-142930666D01*
X113061238Y-142968761D01*
X113023142Y-143044952D01*
X113023142Y-143273523D01*
X113061238Y-143349714D01*
X113099333Y-143387809D01*
X113175523Y-143425904D01*
X113327904Y-143425904D01*
X113404095Y-143387809D01*
X112756476Y-142892571D02*
X112566000Y-143425904D01*
X112375523Y-142892571D02*
X112566000Y-143425904D01*
X112642190Y-143616380D01*
X112680285Y-143654476D01*
X112756476Y-143692571D01*
X111461238Y-143425904D02*
X111461238Y-142625904D01*
X111194571Y-143197333D01*
X110927904Y-142625904D01*
X110927904Y-143425904D01*
X110204095Y-143425904D02*
X110204095Y-143006857D01*
X110242190Y-142930666D01*
X110318380Y-142892571D01*
X110470761Y-142892571D01*
X110546952Y-142930666D01*
X110204095Y-143387809D02*
X110280285Y-143425904D01*
X110470761Y-143425904D01*
X110546952Y-143387809D01*
X110585047Y-143311619D01*
X110585047Y-143235428D01*
X110546952Y-143159238D01*
X110470761Y-143121142D01*
X110280285Y-143121142D01*
X110204095Y-143083047D01*
X109823142Y-142892571D02*
X109823142Y-143692571D01*
X109823142Y-142930666D02*
X109746952Y-142892571D01*
X109594571Y-142892571D01*
X109518380Y-142930666D01*
X109480285Y-142968761D01*
X109442190Y-143044952D01*
X109442190Y-143273523D01*
X109480285Y-143349714D01*
X109518380Y-143387809D01*
X109594571Y-143425904D01*
X109746952Y-143425904D01*
X109823142Y-143387809D01*
X108985047Y-143425904D02*
X109061238Y-143387809D01*
X109099333Y-143311619D01*
X109099333Y-142625904D01*
X108375523Y-143387809D02*
X108451714Y-143425904D01*
X108604095Y-143425904D01*
X108680285Y-143387809D01*
X108718380Y-143311619D01*
X108718380Y-143006857D01*
X108680285Y-142930666D01*
X108604095Y-142892571D01*
X108451714Y-142892571D01*
X108375523Y-142930666D01*
X108337428Y-143006857D01*
X108337428Y-143083047D01*
X108718380Y-143159238D01*
X106927904Y-143425904D02*
X107194571Y-143044952D01*
X107385047Y-143425904D02*
X107385047Y-142625904D01*
X107080285Y-142625904D01*
X107004095Y-142664000D01*
X106966000Y-142702095D01*
X106927904Y-142778285D01*
X106927904Y-142892571D01*
X106966000Y-142968761D01*
X107004095Y-143006857D01*
X107080285Y-143044952D01*
X107385047Y-143044952D01*
X106242190Y-143425904D02*
X106242190Y-143006857D01*
X106280285Y-142930666D01*
X106356476Y-142892571D01*
X106508857Y-142892571D01*
X106585047Y-142930666D01*
X106242190Y-143387809D02*
X106318380Y-143425904D01*
X106508857Y-143425904D01*
X106585047Y-143387809D01*
X106623142Y-143311619D01*
X106623142Y-143235428D01*
X106585047Y-143159238D01*
X106508857Y-143121142D01*
X106318380Y-143121142D01*
X106242190Y-143083047D01*
X105861238Y-143425904D02*
X105861238Y-142892571D01*
X105861238Y-142625904D02*
X105899333Y-142664000D01*
X105861238Y-142702095D01*
X105823142Y-142664000D01*
X105861238Y-142625904D01*
X105861238Y-142702095D01*
X105480285Y-142892571D02*
X105480285Y-143425904D01*
X105480285Y-142968761D02*
X105442190Y-142930666D01*
X105366000Y-142892571D01*
X105251714Y-142892571D01*
X105175523Y-142930666D01*
X105137428Y-143006857D01*
X105137428Y-143425904D01*
X113899333Y-144825904D02*
X114166000Y-144444952D01*
X114356476Y-144825904D02*
X114356476Y-144025904D01*
X114051714Y-144025904D01*
X113975523Y-144064000D01*
X113937428Y-144102095D01*
X113899333Y-144178285D01*
X113899333Y-144292571D01*
X113937428Y-144368761D01*
X113975523Y-144406857D01*
X114051714Y-144444952D01*
X114356476Y-144444952D01*
X113251714Y-144787809D02*
X113327904Y-144825904D01*
X113480285Y-144825904D01*
X113556476Y-144787809D01*
X113594571Y-144711619D01*
X113594571Y-144406857D01*
X113556476Y-144330666D01*
X113480285Y-144292571D01*
X113327904Y-144292571D01*
X113251714Y-144330666D01*
X113213619Y-144406857D01*
X113213619Y-144483047D01*
X113594571Y-144559238D01*
X112908857Y-144787809D02*
X112832666Y-144825904D01*
X112680285Y-144825904D01*
X112604095Y-144787809D01*
X112566000Y-144711619D01*
X112566000Y-144673523D01*
X112604095Y-144597333D01*
X112680285Y-144559238D01*
X112794571Y-144559238D01*
X112870761Y-144521142D01*
X112908857Y-144444952D01*
X112908857Y-144406857D01*
X112870761Y-144330666D01*
X112794571Y-144292571D01*
X112680285Y-144292571D01*
X112604095Y-144330666D01*
X111918380Y-144787809D02*
X111994571Y-144825904D01*
X112146952Y-144825904D01*
X112223142Y-144787809D01*
X112261238Y-144711619D01*
X112261238Y-144406857D01*
X112223142Y-144330666D01*
X112146952Y-144292571D01*
X111994571Y-144292571D01*
X111918380Y-144330666D01*
X111880285Y-144406857D01*
X111880285Y-144483047D01*
X112261238Y-144559238D01*
X111194571Y-144825904D02*
X111194571Y-144406857D01*
X111232666Y-144330666D01*
X111308857Y-144292571D01*
X111461238Y-144292571D01*
X111537428Y-144330666D01*
X111194571Y-144787809D02*
X111270761Y-144825904D01*
X111461238Y-144825904D01*
X111537428Y-144787809D01*
X111575523Y-144711619D01*
X111575523Y-144635428D01*
X111537428Y-144559238D01*
X111461238Y-144521142D01*
X111270761Y-144521142D01*
X111194571Y-144483047D01*
X110813619Y-144825904D02*
X110813619Y-144292571D01*
X110813619Y-144444952D02*
X110775523Y-144368761D01*
X110737428Y-144330666D01*
X110661238Y-144292571D01*
X110585047Y-144292571D01*
X109975523Y-144787809D02*
X110051714Y-144825904D01*
X110204095Y-144825904D01*
X110280285Y-144787809D01*
X110318380Y-144749714D01*
X110356476Y-144673523D01*
X110356476Y-144444952D01*
X110318380Y-144368761D01*
X110280285Y-144330666D01*
X110204095Y-144292571D01*
X110051714Y-144292571D01*
X109975523Y-144330666D01*
X109632666Y-144825904D02*
X109632666Y-144025904D01*
X109289809Y-144825904D02*
X109289809Y-144406857D01*
X109327904Y-144330666D01*
X109404095Y-144292571D01*
X109518380Y-144292571D01*
X109594571Y-144330666D01*
X109632666Y-144368761D01*
X107842190Y-144749714D02*
X107880285Y-144787809D01*
X107994571Y-144825904D01*
X108070761Y-144825904D01*
X108185047Y-144787809D01*
X108261238Y-144711619D01*
X108299333Y-144635428D01*
X108337428Y-144483047D01*
X108337428Y-144368761D01*
X108299333Y-144216380D01*
X108261238Y-144140190D01*
X108185047Y-144064000D01*
X108070761Y-144025904D01*
X107994571Y-144025904D01*
X107880285Y-144064000D01*
X107842190Y-144102095D01*
X107385047Y-144825904D02*
X107461238Y-144787809D01*
X107499333Y-144749714D01*
X107537428Y-144673523D01*
X107537428Y-144444952D01*
X107499333Y-144368761D01*
X107461238Y-144330666D01*
X107385047Y-144292571D01*
X107270761Y-144292571D01*
X107194571Y-144330666D01*
X107156476Y-144368761D01*
X107118380Y-144444952D01*
X107118380Y-144673523D01*
X107156476Y-144749714D01*
X107194571Y-144787809D01*
X107270761Y-144825904D01*
X107385047Y-144825904D01*
X106775523Y-144749714D02*
X106737428Y-144787809D01*
X106775523Y-144825904D01*
X106813619Y-144787809D01*
X106775523Y-144749714D01*
X106775523Y-144825904D01*
X106356476Y-144787809D02*
X106356476Y-144825904D01*
X106394571Y-144902095D01*
X106432666Y-144940190D01*
X105023142Y-144825904D02*
X105404095Y-144825904D01*
X105404095Y-144025904D01*
X104870761Y-144292571D02*
X104566000Y-144292571D01*
X104756476Y-144025904D02*
X104756476Y-144711619D01*
X104718380Y-144787809D01*
X104642190Y-144825904D01*
X104566000Y-144825904D01*
X103956476Y-144825904D02*
X103956476Y-144025904D01*
X103956476Y-144787809D02*
X104032666Y-144825904D01*
X104185047Y-144825904D01*
X104261238Y-144787809D01*
X104299333Y-144749714D01*
X104337428Y-144673523D01*
X104337428Y-144444952D01*
X104299333Y-144368761D01*
X104261238Y-144330666D01*
X104185047Y-144292571D01*
X104032666Y-144292571D01*
X103956476Y-144330666D01*
X103575523Y-144749714D02*
X103537428Y-144787809D01*
X103575523Y-144825904D01*
X103613619Y-144787809D01*
X103575523Y-144749714D01*
X103575523Y-144825904D01*
X98290000Y-142493904D02*
X98337619Y-142589142D01*
X98337619Y-142732000D01*
X98290000Y-142874857D01*
X98194761Y-142970095D01*
X98099523Y-143017714D01*
X97909047Y-143065333D01*
X97766190Y-143065333D01*
X97575714Y-143017714D01*
X97480476Y-142970095D01*
X97385238Y-142874857D01*
X97337619Y-142732000D01*
X97337619Y-142636761D01*
X97385238Y-142493904D01*
X97432857Y-142446285D01*
X97766190Y-142446285D01*
X97766190Y-142636761D01*
X97337619Y-142017714D02*
X98337619Y-142017714D01*
X97337619Y-141446285D01*
X98337619Y-141446285D01*
X97337619Y-140970095D02*
X98337619Y-140970095D01*
X98337619Y-140732000D01*
X98290000Y-140589142D01*
X98194761Y-140493904D01*
X98099523Y-140446285D01*
X97909047Y-140398666D01*
X97766190Y-140398666D01*
X97575714Y-140446285D01*
X97480476Y-140493904D01*
X97385238Y-140589142D01*
X97337619Y-140732000D01*
X97337619Y-140970095D01*
X90384380Y-141668523D02*
X90384380Y-141192333D01*
X90860571Y-141144714D01*
X90812952Y-141192333D01*
X90765333Y-141287571D01*
X90765333Y-141525666D01*
X90812952Y-141620904D01*
X90860571Y-141668523D01*
X90955809Y-141716142D01*
X91193904Y-141716142D01*
X91289142Y-141668523D01*
X91336761Y-141620904D01*
X91384380Y-141525666D01*
X91384380Y-141287571D01*
X91336761Y-141192333D01*
X91289142Y-141144714D01*
X90384380Y-142001857D02*
X91384380Y-142335190D01*
X90384380Y-142668523D01*
X93265523Y-147121571D02*
X93598857Y-147121571D01*
X93598857Y-147645380D02*
X93598857Y-146645380D01*
X93122666Y-146645380D01*
X92789333Y-147359666D02*
X92313142Y-147359666D01*
X92884571Y-147645380D02*
X92551238Y-146645380D01*
X92217904Y-147645380D01*
X91884571Y-147645380D02*
X91884571Y-146645380D01*
X91313142Y-147645380D01*
X91313142Y-146645380D01*
X96654857Y-147645380D02*
X97131047Y-147645380D01*
X97131047Y-146645380D01*
X96321523Y-147121571D02*
X95988190Y-147121571D01*
X95845333Y-147645380D02*
X96321523Y-147645380D01*
X96321523Y-146645380D01*
X95845333Y-146645380D01*
X95416761Y-147645380D02*
X95416761Y-146645380D01*
X95178666Y-146645380D01*
X95035809Y-146693000D01*
X94940571Y-146788238D01*
X94892952Y-146883476D01*
X94845333Y-147073952D01*
X94845333Y-147216809D01*
X94892952Y-147407285D01*
X94940571Y-147502523D01*
X95035809Y-147597761D01*
X95178666Y-147645380D01*
X95416761Y-147645380D01*
D11*
X96945000Y-140529000D02*
X94345000Y-140529000D01*
X96945000Y-140529000D02*
X96945000Y-145729000D01*
X96945000Y-145729000D02*
X91745000Y-145729000D01*
X91745000Y-143129000D02*
X91745000Y-145729000D01*
X94345000Y-143129000D02*
X91745000Y-143129000D01*
X94345000Y-140529000D02*
X94345000Y-143129000D01*
X91745000Y-140529000D02*
X91745000Y-141859000D01*
X93075000Y-140529000D02*
X91745000Y-140529000D01*
D12*
X91138333Y-143978380D02*
X91138333Y-144692666D01*
X91185952Y-144835523D01*
X91281190Y-144930761D01*
X91424047Y-144978380D01*
X91519285Y-144978380D01*
X90138333Y-144978380D02*
X90709761Y-144978380D01*
X90424047Y-144978380D02*
X90424047Y-143978380D01*
X90519285Y-144121238D01*
X90614523Y-144216476D01*
X90709761Y-144264095D01*
M02*
