G04 #@! TF.GenerationSoftware,KiCad,Pcbnew,5.1.5-52549c5~86~ubuntu18.04.1*
G04 #@! TF.CreationDate,2020-04-08T17:49:12+09:00*
G04 #@! TF.ProjectId,MRR_PiFan,4d52525f-5069-4466-916e-2e6b69636164,rev?*
G04 #@! TF.SameCoordinates,Original*
G04 #@! TF.FileFunction,Copper,L1,Top*
G04 #@! TF.FilePolarity,Positive*
%FSLAX46Y46*%
G04 Gerber Fmt 4.6, Leading zero omitted, Abs format (unit mm)*
G04 Created by KiCad (PCBNEW 5.1.5-52549c5~86~ubuntu18.04.1) date 2020-04-08 17:49:12*
%MOMM*%
%LPD*%
G04 APERTURE LIST*
%ADD10C,0.100000*%
%ADD11R,2.500000X2.000000*%
%ADD12R,1.560000X0.650000*%
%ADD13R,2.000000X2.500000*%
%ADD14C,0.800000*%
%ADD15C,0.500000*%
%ADD16C,1.000000*%
%ADD17C,0.250000*%
%ADD18C,0.700000*%
%ADD19C,0.254000*%
G04 APERTURE END LIST*
G04 #@! TA.AperFunction,SMDPad,CuDef*
D10*
G36*
X109524505Y-144276204D02*
G01*
X109548773Y-144279804D01*
X109572572Y-144285765D01*
X109595671Y-144294030D01*
X109617850Y-144304520D01*
X109638893Y-144317132D01*
X109658599Y-144331747D01*
X109676777Y-144348223D01*
X109693253Y-144366401D01*
X109707868Y-144386107D01*
X109720480Y-144407150D01*
X109730970Y-144429329D01*
X109739235Y-144452428D01*
X109745196Y-144476227D01*
X109748796Y-144500495D01*
X109750000Y-144524999D01*
X109750000Y-145175001D01*
X109748796Y-145199505D01*
X109745196Y-145223773D01*
X109739235Y-145247572D01*
X109730970Y-145270671D01*
X109720480Y-145292850D01*
X109707868Y-145313893D01*
X109693253Y-145333599D01*
X109676777Y-145351777D01*
X109658599Y-145368253D01*
X109638893Y-145382868D01*
X109617850Y-145395480D01*
X109595671Y-145405970D01*
X109572572Y-145414235D01*
X109548773Y-145420196D01*
X109524505Y-145423796D01*
X109500001Y-145425000D01*
X108599999Y-145425000D01*
X108575495Y-145423796D01*
X108551227Y-145420196D01*
X108527428Y-145414235D01*
X108504329Y-145405970D01*
X108482150Y-145395480D01*
X108461107Y-145382868D01*
X108441401Y-145368253D01*
X108423223Y-145351777D01*
X108406747Y-145333599D01*
X108392132Y-145313893D01*
X108379520Y-145292850D01*
X108369030Y-145270671D01*
X108360765Y-145247572D01*
X108354804Y-145223773D01*
X108351204Y-145199505D01*
X108350000Y-145175001D01*
X108350000Y-144524999D01*
X108351204Y-144500495D01*
X108354804Y-144476227D01*
X108360765Y-144452428D01*
X108369030Y-144429329D01*
X108379520Y-144407150D01*
X108392132Y-144386107D01*
X108406747Y-144366401D01*
X108423223Y-144348223D01*
X108441401Y-144331747D01*
X108461107Y-144317132D01*
X108482150Y-144304520D01*
X108504329Y-144294030D01*
X108527428Y-144285765D01*
X108551227Y-144279804D01*
X108575495Y-144276204D01*
X108599999Y-144275000D01*
X109500001Y-144275000D01*
X109524505Y-144276204D01*
G37*
G04 #@! TD.AperFunction*
G04 #@! TA.AperFunction,SMDPad,CuDef*
G36*
X109524505Y-146326204D02*
G01*
X109548773Y-146329804D01*
X109572572Y-146335765D01*
X109595671Y-146344030D01*
X109617850Y-146354520D01*
X109638893Y-146367132D01*
X109658599Y-146381747D01*
X109676777Y-146398223D01*
X109693253Y-146416401D01*
X109707868Y-146436107D01*
X109720480Y-146457150D01*
X109730970Y-146479329D01*
X109739235Y-146502428D01*
X109745196Y-146526227D01*
X109748796Y-146550495D01*
X109750000Y-146574999D01*
X109750000Y-147225001D01*
X109748796Y-147249505D01*
X109745196Y-147273773D01*
X109739235Y-147297572D01*
X109730970Y-147320671D01*
X109720480Y-147342850D01*
X109707868Y-147363893D01*
X109693253Y-147383599D01*
X109676777Y-147401777D01*
X109658599Y-147418253D01*
X109638893Y-147432868D01*
X109617850Y-147445480D01*
X109595671Y-147455970D01*
X109572572Y-147464235D01*
X109548773Y-147470196D01*
X109524505Y-147473796D01*
X109500001Y-147475000D01*
X108599999Y-147475000D01*
X108575495Y-147473796D01*
X108551227Y-147470196D01*
X108527428Y-147464235D01*
X108504329Y-147455970D01*
X108482150Y-147445480D01*
X108461107Y-147432868D01*
X108441401Y-147418253D01*
X108423223Y-147401777D01*
X108406747Y-147383599D01*
X108392132Y-147363893D01*
X108379520Y-147342850D01*
X108369030Y-147320671D01*
X108360765Y-147297572D01*
X108354804Y-147273773D01*
X108351204Y-147249505D01*
X108350000Y-147225001D01*
X108350000Y-146574999D01*
X108351204Y-146550495D01*
X108354804Y-146526227D01*
X108360765Y-146502428D01*
X108369030Y-146479329D01*
X108379520Y-146457150D01*
X108392132Y-146436107D01*
X108406747Y-146416401D01*
X108423223Y-146398223D01*
X108441401Y-146381747D01*
X108461107Y-146367132D01*
X108482150Y-146354520D01*
X108504329Y-146344030D01*
X108527428Y-146335765D01*
X108551227Y-146329804D01*
X108575495Y-146326204D01*
X108599999Y-146325000D01*
X109500001Y-146325000D01*
X109524505Y-146326204D01*
G37*
G04 #@! TD.AperFunction*
G04 #@! TA.AperFunction,SMDPad,CuDef*
G36*
X109552841Y-142491015D02*
G01*
X109577109Y-142494615D01*
X109600908Y-142500576D01*
X109624007Y-142508841D01*
X109646186Y-142519331D01*
X109667229Y-142531943D01*
X109686935Y-142546558D01*
X109705113Y-142563034D01*
X109721589Y-142581212D01*
X109736204Y-142600918D01*
X109748816Y-142621961D01*
X109759306Y-142644140D01*
X109767571Y-142667239D01*
X109773532Y-142691038D01*
X109777132Y-142715306D01*
X109778336Y-142739810D01*
X109778336Y-143389812D01*
X109777132Y-143414316D01*
X109773532Y-143438584D01*
X109767571Y-143462383D01*
X109759306Y-143485482D01*
X109748816Y-143507661D01*
X109736204Y-143528704D01*
X109721589Y-143548410D01*
X109705113Y-143566588D01*
X109686935Y-143583064D01*
X109667229Y-143597679D01*
X109646186Y-143610291D01*
X109624007Y-143620781D01*
X109600908Y-143629046D01*
X109577109Y-143635007D01*
X109552841Y-143638607D01*
X109528337Y-143639811D01*
X108628335Y-143639811D01*
X108603831Y-143638607D01*
X108579563Y-143635007D01*
X108555764Y-143629046D01*
X108532665Y-143620781D01*
X108510486Y-143610291D01*
X108489443Y-143597679D01*
X108469737Y-143583064D01*
X108451559Y-143566588D01*
X108435083Y-143548410D01*
X108420468Y-143528704D01*
X108407856Y-143507661D01*
X108397366Y-143485482D01*
X108389101Y-143462383D01*
X108383140Y-143438584D01*
X108379540Y-143414316D01*
X108378336Y-143389812D01*
X108378336Y-142739810D01*
X108379540Y-142715306D01*
X108383140Y-142691038D01*
X108389101Y-142667239D01*
X108397366Y-142644140D01*
X108407856Y-142621961D01*
X108420468Y-142600918D01*
X108435083Y-142581212D01*
X108451559Y-142563034D01*
X108469737Y-142546558D01*
X108489443Y-142531943D01*
X108510486Y-142519331D01*
X108532665Y-142508841D01*
X108555764Y-142500576D01*
X108579563Y-142494615D01*
X108603831Y-142491015D01*
X108628335Y-142489811D01*
X109528337Y-142489811D01*
X109552841Y-142491015D01*
G37*
G04 #@! TD.AperFunction*
G04 #@! TA.AperFunction,SMDPad,CuDef*
G36*
X109552841Y-140441015D02*
G01*
X109577109Y-140444615D01*
X109600908Y-140450576D01*
X109624007Y-140458841D01*
X109646186Y-140469331D01*
X109667229Y-140481943D01*
X109686935Y-140496558D01*
X109705113Y-140513034D01*
X109721589Y-140531212D01*
X109736204Y-140550918D01*
X109748816Y-140571961D01*
X109759306Y-140594140D01*
X109767571Y-140617239D01*
X109773532Y-140641038D01*
X109777132Y-140665306D01*
X109778336Y-140689810D01*
X109778336Y-141339812D01*
X109777132Y-141364316D01*
X109773532Y-141388584D01*
X109767571Y-141412383D01*
X109759306Y-141435482D01*
X109748816Y-141457661D01*
X109736204Y-141478704D01*
X109721589Y-141498410D01*
X109705113Y-141516588D01*
X109686935Y-141533064D01*
X109667229Y-141547679D01*
X109646186Y-141560291D01*
X109624007Y-141570781D01*
X109600908Y-141579046D01*
X109577109Y-141585007D01*
X109552841Y-141588607D01*
X109528337Y-141589811D01*
X108628335Y-141589811D01*
X108603831Y-141588607D01*
X108579563Y-141585007D01*
X108555764Y-141579046D01*
X108532665Y-141570781D01*
X108510486Y-141560291D01*
X108489443Y-141547679D01*
X108469737Y-141533064D01*
X108451559Y-141516588D01*
X108435083Y-141498410D01*
X108420468Y-141478704D01*
X108407856Y-141457661D01*
X108397366Y-141435482D01*
X108389101Y-141412383D01*
X108383140Y-141388584D01*
X108379540Y-141364316D01*
X108378336Y-141339812D01*
X108378336Y-140689810D01*
X108379540Y-140665306D01*
X108383140Y-140641038D01*
X108389101Y-140617239D01*
X108397366Y-140594140D01*
X108407856Y-140571961D01*
X108420468Y-140550918D01*
X108435083Y-140531212D01*
X108451559Y-140513034D01*
X108469737Y-140496558D01*
X108489443Y-140481943D01*
X108510486Y-140469331D01*
X108532665Y-140458841D01*
X108555764Y-140450576D01*
X108579563Y-140444615D01*
X108603831Y-140441015D01*
X108628335Y-140439811D01*
X109528337Y-140439811D01*
X109552841Y-140441015D01*
G37*
G04 #@! TD.AperFunction*
D11*
X117140000Y-141875000D03*
X117140000Y-144415000D03*
D12*
X104225000Y-143075000D03*
X104225000Y-144025000D03*
X104225000Y-144975000D03*
X106925000Y-144975000D03*
X106925000Y-143075000D03*
X106925000Y-144025000D03*
G04 #@! TA.AperFunction,SMDPad,CuDef*
D10*
G36*
X111580142Y-144201174D02*
G01*
X111603803Y-144204684D01*
X111627007Y-144210496D01*
X111649529Y-144218554D01*
X111671153Y-144228782D01*
X111691670Y-144241079D01*
X111710883Y-144255329D01*
X111728607Y-144271393D01*
X111744671Y-144289117D01*
X111758921Y-144308330D01*
X111771218Y-144328847D01*
X111781446Y-144350471D01*
X111789504Y-144372993D01*
X111795316Y-144396197D01*
X111798826Y-144419858D01*
X111800000Y-144443750D01*
X111800000Y-144931250D01*
X111798826Y-144955142D01*
X111795316Y-144978803D01*
X111789504Y-145002007D01*
X111781446Y-145024529D01*
X111771218Y-145046153D01*
X111758921Y-145066670D01*
X111744671Y-145085883D01*
X111728607Y-145103607D01*
X111710883Y-145119671D01*
X111691670Y-145133921D01*
X111671153Y-145146218D01*
X111649529Y-145156446D01*
X111627007Y-145164504D01*
X111603803Y-145170316D01*
X111580142Y-145173826D01*
X111556250Y-145175000D01*
X110643750Y-145175000D01*
X110619858Y-145173826D01*
X110596197Y-145170316D01*
X110572993Y-145164504D01*
X110550471Y-145156446D01*
X110528847Y-145146218D01*
X110508330Y-145133921D01*
X110489117Y-145119671D01*
X110471393Y-145103607D01*
X110455329Y-145085883D01*
X110441079Y-145066670D01*
X110428782Y-145046153D01*
X110418554Y-145024529D01*
X110410496Y-145002007D01*
X110404684Y-144978803D01*
X110401174Y-144955142D01*
X110400000Y-144931250D01*
X110400000Y-144443750D01*
X110401174Y-144419858D01*
X110404684Y-144396197D01*
X110410496Y-144372993D01*
X110418554Y-144350471D01*
X110428782Y-144328847D01*
X110441079Y-144308330D01*
X110455329Y-144289117D01*
X110471393Y-144271393D01*
X110489117Y-144255329D01*
X110508330Y-144241079D01*
X110528847Y-144228782D01*
X110550471Y-144218554D01*
X110572993Y-144210496D01*
X110596197Y-144204684D01*
X110619858Y-144201174D01*
X110643750Y-144200000D01*
X111556250Y-144200000D01*
X111580142Y-144201174D01*
G37*
G04 #@! TD.AperFunction*
G04 #@! TA.AperFunction,SMDPad,CuDef*
G36*
X111580142Y-146076174D02*
G01*
X111603803Y-146079684D01*
X111627007Y-146085496D01*
X111649529Y-146093554D01*
X111671153Y-146103782D01*
X111691670Y-146116079D01*
X111710883Y-146130329D01*
X111728607Y-146146393D01*
X111744671Y-146164117D01*
X111758921Y-146183330D01*
X111771218Y-146203847D01*
X111781446Y-146225471D01*
X111789504Y-146247993D01*
X111795316Y-146271197D01*
X111798826Y-146294858D01*
X111800000Y-146318750D01*
X111800000Y-146806250D01*
X111798826Y-146830142D01*
X111795316Y-146853803D01*
X111789504Y-146877007D01*
X111781446Y-146899529D01*
X111771218Y-146921153D01*
X111758921Y-146941670D01*
X111744671Y-146960883D01*
X111728607Y-146978607D01*
X111710883Y-146994671D01*
X111691670Y-147008921D01*
X111671153Y-147021218D01*
X111649529Y-147031446D01*
X111627007Y-147039504D01*
X111603803Y-147045316D01*
X111580142Y-147048826D01*
X111556250Y-147050000D01*
X110643750Y-147050000D01*
X110619858Y-147048826D01*
X110596197Y-147045316D01*
X110572993Y-147039504D01*
X110550471Y-147031446D01*
X110528847Y-147021218D01*
X110508330Y-147008921D01*
X110489117Y-146994671D01*
X110471393Y-146978607D01*
X110455329Y-146960883D01*
X110441079Y-146941670D01*
X110428782Y-146921153D01*
X110418554Y-146899529D01*
X110410496Y-146877007D01*
X110404684Y-146853803D01*
X110401174Y-146830142D01*
X110400000Y-146806250D01*
X110400000Y-146318750D01*
X110401174Y-146294858D01*
X110404684Y-146271197D01*
X110410496Y-146247993D01*
X110418554Y-146225471D01*
X110428782Y-146203847D01*
X110441079Y-146183330D01*
X110455329Y-146164117D01*
X110471393Y-146146393D01*
X110489117Y-146130329D01*
X110508330Y-146116079D01*
X110528847Y-146103782D01*
X110550471Y-146093554D01*
X110572993Y-146085496D01*
X110596197Y-146079684D01*
X110619858Y-146076174D01*
X110643750Y-146075000D01*
X111556250Y-146075000D01*
X111580142Y-146076174D01*
G37*
G04 #@! TD.AperFunction*
G04 #@! TA.AperFunction,SMDPad,CuDef*
G36*
X102630142Y-146226174D02*
G01*
X102653803Y-146229684D01*
X102677007Y-146235496D01*
X102699529Y-146243554D01*
X102721153Y-146253782D01*
X102741670Y-146266079D01*
X102760883Y-146280329D01*
X102778607Y-146296393D01*
X102794671Y-146314117D01*
X102808921Y-146333330D01*
X102821218Y-146353847D01*
X102831446Y-146375471D01*
X102839504Y-146397993D01*
X102845316Y-146421197D01*
X102848826Y-146444858D01*
X102850000Y-146468750D01*
X102850000Y-146956250D01*
X102848826Y-146980142D01*
X102845316Y-147003803D01*
X102839504Y-147027007D01*
X102831446Y-147049529D01*
X102821218Y-147071153D01*
X102808921Y-147091670D01*
X102794671Y-147110883D01*
X102778607Y-147128607D01*
X102760883Y-147144671D01*
X102741670Y-147158921D01*
X102721153Y-147171218D01*
X102699529Y-147181446D01*
X102677007Y-147189504D01*
X102653803Y-147195316D01*
X102630142Y-147198826D01*
X102606250Y-147200000D01*
X101693750Y-147200000D01*
X101669858Y-147198826D01*
X101646197Y-147195316D01*
X101622993Y-147189504D01*
X101600471Y-147181446D01*
X101578847Y-147171218D01*
X101558330Y-147158921D01*
X101539117Y-147144671D01*
X101521393Y-147128607D01*
X101505329Y-147110883D01*
X101491079Y-147091670D01*
X101478782Y-147071153D01*
X101468554Y-147049529D01*
X101460496Y-147027007D01*
X101454684Y-147003803D01*
X101451174Y-146980142D01*
X101450000Y-146956250D01*
X101450000Y-146468750D01*
X101451174Y-146444858D01*
X101454684Y-146421197D01*
X101460496Y-146397993D01*
X101468554Y-146375471D01*
X101478782Y-146353847D01*
X101491079Y-146333330D01*
X101505329Y-146314117D01*
X101521393Y-146296393D01*
X101539117Y-146280329D01*
X101558330Y-146266079D01*
X101578847Y-146253782D01*
X101600471Y-146243554D01*
X101622993Y-146235496D01*
X101646197Y-146229684D01*
X101669858Y-146226174D01*
X101693750Y-146225000D01*
X102606250Y-146225000D01*
X102630142Y-146226174D01*
G37*
G04 #@! TD.AperFunction*
G04 #@! TA.AperFunction,SMDPad,CuDef*
G36*
X102630142Y-144351174D02*
G01*
X102653803Y-144354684D01*
X102677007Y-144360496D01*
X102699529Y-144368554D01*
X102721153Y-144378782D01*
X102741670Y-144391079D01*
X102760883Y-144405329D01*
X102778607Y-144421393D01*
X102794671Y-144439117D01*
X102808921Y-144458330D01*
X102821218Y-144478847D01*
X102831446Y-144500471D01*
X102839504Y-144522993D01*
X102845316Y-144546197D01*
X102848826Y-144569858D01*
X102850000Y-144593750D01*
X102850000Y-145081250D01*
X102848826Y-145105142D01*
X102845316Y-145128803D01*
X102839504Y-145152007D01*
X102831446Y-145174529D01*
X102821218Y-145196153D01*
X102808921Y-145216670D01*
X102794671Y-145235883D01*
X102778607Y-145253607D01*
X102760883Y-145269671D01*
X102741670Y-145283921D01*
X102721153Y-145296218D01*
X102699529Y-145306446D01*
X102677007Y-145314504D01*
X102653803Y-145320316D01*
X102630142Y-145323826D01*
X102606250Y-145325000D01*
X101693750Y-145325000D01*
X101669858Y-145323826D01*
X101646197Y-145320316D01*
X101622993Y-145314504D01*
X101600471Y-145306446D01*
X101578847Y-145296218D01*
X101558330Y-145283921D01*
X101539117Y-145269671D01*
X101521393Y-145253607D01*
X101505329Y-145235883D01*
X101491079Y-145216670D01*
X101478782Y-145196153D01*
X101468554Y-145174529D01*
X101460496Y-145152007D01*
X101454684Y-145128803D01*
X101451174Y-145105142D01*
X101450000Y-145081250D01*
X101450000Y-144593750D01*
X101451174Y-144569858D01*
X101454684Y-144546197D01*
X101460496Y-144522993D01*
X101468554Y-144500471D01*
X101478782Y-144478847D01*
X101491079Y-144458330D01*
X101505329Y-144439117D01*
X101521393Y-144421393D01*
X101539117Y-144405329D01*
X101558330Y-144391079D01*
X101578847Y-144378782D01*
X101600471Y-144368554D01*
X101622993Y-144360496D01*
X101646197Y-144354684D01*
X101669858Y-144351174D01*
X101693750Y-144350000D01*
X102606250Y-144350000D01*
X102630142Y-144351174D01*
G37*
G04 #@! TD.AperFunction*
G04 #@! TA.AperFunction,SMDPad,CuDef*
G36*
X100655142Y-144351174D02*
G01*
X100678803Y-144354684D01*
X100702007Y-144360496D01*
X100724529Y-144368554D01*
X100746153Y-144378782D01*
X100766670Y-144391079D01*
X100785883Y-144405329D01*
X100803607Y-144421393D01*
X100819671Y-144439117D01*
X100833921Y-144458330D01*
X100846218Y-144478847D01*
X100856446Y-144500471D01*
X100864504Y-144522993D01*
X100870316Y-144546197D01*
X100873826Y-144569858D01*
X100875000Y-144593750D01*
X100875000Y-145081250D01*
X100873826Y-145105142D01*
X100870316Y-145128803D01*
X100864504Y-145152007D01*
X100856446Y-145174529D01*
X100846218Y-145196153D01*
X100833921Y-145216670D01*
X100819671Y-145235883D01*
X100803607Y-145253607D01*
X100785883Y-145269671D01*
X100766670Y-145283921D01*
X100746153Y-145296218D01*
X100724529Y-145306446D01*
X100702007Y-145314504D01*
X100678803Y-145320316D01*
X100655142Y-145323826D01*
X100631250Y-145325000D01*
X99718750Y-145325000D01*
X99694858Y-145323826D01*
X99671197Y-145320316D01*
X99647993Y-145314504D01*
X99625471Y-145306446D01*
X99603847Y-145296218D01*
X99583330Y-145283921D01*
X99564117Y-145269671D01*
X99546393Y-145253607D01*
X99530329Y-145235883D01*
X99516079Y-145216670D01*
X99503782Y-145196153D01*
X99493554Y-145174529D01*
X99485496Y-145152007D01*
X99479684Y-145128803D01*
X99476174Y-145105142D01*
X99475000Y-145081250D01*
X99475000Y-144593750D01*
X99476174Y-144569858D01*
X99479684Y-144546197D01*
X99485496Y-144522993D01*
X99493554Y-144500471D01*
X99503782Y-144478847D01*
X99516079Y-144458330D01*
X99530329Y-144439117D01*
X99546393Y-144421393D01*
X99564117Y-144405329D01*
X99583330Y-144391079D01*
X99603847Y-144378782D01*
X99625471Y-144368554D01*
X99647993Y-144360496D01*
X99671197Y-144354684D01*
X99694858Y-144351174D01*
X99718750Y-144350000D01*
X100631250Y-144350000D01*
X100655142Y-144351174D01*
G37*
G04 #@! TD.AperFunction*
G04 #@! TA.AperFunction,SMDPad,CuDef*
G36*
X100655142Y-146226174D02*
G01*
X100678803Y-146229684D01*
X100702007Y-146235496D01*
X100724529Y-146243554D01*
X100746153Y-146253782D01*
X100766670Y-146266079D01*
X100785883Y-146280329D01*
X100803607Y-146296393D01*
X100819671Y-146314117D01*
X100833921Y-146333330D01*
X100846218Y-146353847D01*
X100856446Y-146375471D01*
X100864504Y-146397993D01*
X100870316Y-146421197D01*
X100873826Y-146444858D01*
X100875000Y-146468750D01*
X100875000Y-146956250D01*
X100873826Y-146980142D01*
X100870316Y-147003803D01*
X100864504Y-147027007D01*
X100856446Y-147049529D01*
X100846218Y-147071153D01*
X100833921Y-147091670D01*
X100819671Y-147110883D01*
X100803607Y-147128607D01*
X100785883Y-147144671D01*
X100766670Y-147158921D01*
X100746153Y-147171218D01*
X100724529Y-147181446D01*
X100702007Y-147189504D01*
X100678803Y-147195316D01*
X100655142Y-147198826D01*
X100631250Y-147200000D01*
X99718750Y-147200000D01*
X99694858Y-147198826D01*
X99671197Y-147195316D01*
X99647993Y-147189504D01*
X99625471Y-147181446D01*
X99603847Y-147171218D01*
X99583330Y-147158921D01*
X99564117Y-147144671D01*
X99546393Y-147128607D01*
X99530329Y-147110883D01*
X99516079Y-147091670D01*
X99503782Y-147071153D01*
X99493554Y-147049529D01*
X99485496Y-147027007D01*
X99479684Y-147003803D01*
X99476174Y-146980142D01*
X99475000Y-146956250D01*
X99475000Y-146468750D01*
X99476174Y-146444858D01*
X99479684Y-146421197D01*
X99485496Y-146397993D01*
X99493554Y-146375471D01*
X99503782Y-146353847D01*
X99516079Y-146333330D01*
X99530329Y-146314117D01*
X99546393Y-146296393D01*
X99564117Y-146280329D01*
X99583330Y-146266079D01*
X99603847Y-146253782D01*
X99625471Y-146243554D01*
X99647993Y-146235496D01*
X99671197Y-146229684D01*
X99694858Y-146226174D01*
X99718750Y-146225000D01*
X100631250Y-146225000D01*
X100655142Y-146226174D01*
G37*
G04 #@! TD.AperFunction*
G04 #@! TA.AperFunction,SMDPad,CuDef*
G36*
X111533478Y-142415985D02*
G01*
X111557139Y-142419495D01*
X111580343Y-142425307D01*
X111602865Y-142433365D01*
X111624489Y-142443593D01*
X111645006Y-142455890D01*
X111664219Y-142470140D01*
X111681943Y-142486204D01*
X111698007Y-142503928D01*
X111712257Y-142523141D01*
X111724554Y-142543658D01*
X111734782Y-142565282D01*
X111742840Y-142587804D01*
X111748652Y-142611008D01*
X111752162Y-142634669D01*
X111753336Y-142658561D01*
X111753336Y-143146061D01*
X111752162Y-143169953D01*
X111748652Y-143193614D01*
X111742840Y-143216818D01*
X111734782Y-143239340D01*
X111724554Y-143260964D01*
X111712257Y-143281481D01*
X111698007Y-143300694D01*
X111681943Y-143318418D01*
X111664219Y-143334482D01*
X111645006Y-143348732D01*
X111624489Y-143361029D01*
X111602865Y-143371257D01*
X111580343Y-143379315D01*
X111557139Y-143385127D01*
X111533478Y-143388637D01*
X111509586Y-143389811D01*
X110597086Y-143389811D01*
X110573194Y-143388637D01*
X110549533Y-143385127D01*
X110526329Y-143379315D01*
X110503807Y-143371257D01*
X110482183Y-143361029D01*
X110461666Y-143348732D01*
X110442453Y-143334482D01*
X110424729Y-143318418D01*
X110408665Y-143300694D01*
X110394415Y-143281481D01*
X110382118Y-143260964D01*
X110371890Y-143239340D01*
X110363832Y-143216818D01*
X110358020Y-143193614D01*
X110354510Y-143169953D01*
X110353336Y-143146061D01*
X110353336Y-142658561D01*
X110354510Y-142634669D01*
X110358020Y-142611008D01*
X110363832Y-142587804D01*
X110371890Y-142565282D01*
X110382118Y-142543658D01*
X110394415Y-142523141D01*
X110408665Y-142503928D01*
X110424729Y-142486204D01*
X110442453Y-142470140D01*
X110461666Y-142455890D01*
X110482183Y-142443593D01*
X110503807Y-142433365D01*
X110526329Y-142425307D01*
X110549533Y-142419495D01*
X110573194Y-142415985D01*
X110597086Y-142414811D01*
X111509586Y-142414811D01*
X111533478Y-142415985D01*
G37*
G04 #@! TD.AperFunction*
G04 #@! TA.AperFunction,SMDPad,CuDef*
G36*
X111533478Y-140540985D02*
G01*
X111557139Y-140544495D01*
X111580343Y-140550307D01*
X111602865Y-140558365D01*
X111624489Y-140568593D01*
X111645006Y-140580890D01*
X111664219Y-140595140D01*
X111681943Y-140611204D01*
X111698007Y-140628928D01*
X111712257Y-140648141D01*
X111724554Y-140668658D01*
X111734782Y-140690282D01*
X111742840Y-140712804D01*
X111748652Y-140736008D01*
X111752162Y-140759669D01*
X111753336Y-140783561D01*
X111753336Y-141271061D01*
X111752162Y-141294953D01*
X111748652Y-141318614D01*
X111742840Y-141341818D01*
X111734782Y-141364340D01*
X111724554Y-141385964D01*
X111712257Y-141406481D01*
X111698007Y-141425694D01*
X111681943Y-141443418D01*
X111664219Y-141459482D01*
X111645006Y-141473732D01*
X111624489Y-141486029D01*
X111602865Y-141496257D01*
X111580343Y-141504315D01*
X111557139Y-141510127D01*
X111533478Y-141513637D01*
X111509586Y-141514811D01*
X110597086Y-141514811D01*
X110573194Y-141513637D01*
X110549533Y-141510127D01*
X110526329Y-141504315D01*
X110503807Y-141496257D01*
X110482183Y-141486029D01*
X110461666Y-141473732D01*
X110442453Y-141459482D01*
X110424729Y-141443418D01*
X110408665Y-141425694D01*
X110394415Y-141406481D01*
X110382118Y-141385964D01*
X110371890Y-141364340D01*
X110363832Y-141341818D01*
X110358020Y-141318614D01*
X110354510Y-141294953D01*
X110353336Y-141271061D01*
X110353336Y-140783561D01*
X110354510Y-140759669D01*
X110358020Y-140736008D01*
X110363832Y-140712804D01*
X110371890Y-140690282D01*
X110382118Y-140668658D01*
X110394415Y-140648141D01*
X110408665Y-140628928D01*
X110424729Y-140611204D01*
X110442453Y-140595140D01*
X110461666Y-140580890D01*
X110482183Y-140568593D01*
X110503807Y-140558365D01*
X110526329Y-140550307D01*
X110549533Y-140544495D01*
X110573194Y-140540985D01*
X110597086Y-140539811D01*
X111509586Y-140539811D01*
X111533478Y-140540985D01*
G37*
G04 #@! TD.AperFunction*
G04 #@! TA.AperFunction,SMDPad,CuDef*
G36*
X102605142Y-140451174D02*
G01*
X102628803Y-140454684D01*
X102652007Y-140460496D01*
X102674529Y-140468554D01*
X102696153Y-140478782D01*
X102716670Y-140491079D01*
X102735883Y-140505329D01*
X102753607Y-140521393D01*
X102769671Y-140539117D01*
X102783921Y-140558330D01*
X102796218Y-140578847D01*
X102806446Y-140600471D01*
X102814504Y-140622993D01*
X102820316Y-140646197D01*
X102823826Y-140669858D01*
X102825000Y-140693750D01*
X102825000Y-141181250D01*
X102823826Y-141205142D01*
X102820316Y-141228803D01*
X102814504Y-141252007D01*
X102806446Y-141274529D01*
X102796218Y-141296153D01*
X102783921Y-141316670D01*
X102769671Y-141335883D01*
X102753607Y-141353607D01*
X102735883Y-141369671D01*
X102716670Y-141383921D01*
X102696153Y-141396218D01*
X102674529Y-141406446D01*
X102652007Y-141414504D01*
X102628803Y-141420316D01*
X102605142Y-141423826D01*
X102581250Y-141425000D01*
X101668750Y-141425000D01*
X101644858Y-141423826D01*
X101621197Y-141420316D01*
X101597993Y-141414504D01*
X101575471Y-141406446D01*
X101553847Y-141396218D01*
X101533330Y-141383921D01*
X101514117Y-141369671D01*
X101496393Y-141353607D01*
X101480329Y-141335883D01*
X101466079Y-141316670D01*
X101453782Y-141296153D01*
X101443554Y-141274529D01*
X101435496Y-141252007D01*
X101429684Y-141228803D01*
X101426174Y-141205142D01*
X101425000Y-141181250D01*
X101425000Y-140693750D01*
X101426174Y-140669858D01*
X101429684Y-140646197D01*
X101435496Y-140622993D01*
X101443554Y-140600471D01*
X101453782Y-140578847D01*
X101466079Y-140558330D01*
X101480329Y-140539117D01*
X101496393Y-140521393D01*
X101514117Y-140505329D01*
X101533330Y-140491079D01*
X101553847Y-140478782D01*
X101575471Y-140468554D01*
X101597993Y-140460496D01*
X101621197Y-140454684D01*
X101644858Y-140451174D01*
X101668750Y-140450000D01*
X102581250Y-140450000D01*
X102605142Y-140451174D01*
G37*
G04 #@! TD.AperFunction*
G04 #@! TA.AperFunction,SMDPad,CuDef*
G36*
X102605142Y-142326174D02*
G01*
X102628803Y-142329684D01*
X102652007Y-142335496D01*
X102674529Y-142343554D01*
X102696153Y-142353782D01*
X102716670Y-142366079D01*
X102735883Y-142380329D01*
X102753607Y-142396393D01*
X102769671Y-142414117D01*
X102783921Y-142433330D01*
X102796218Y-142453847D01*
X102806446Y-142475471D01*
X102814504Y-142497993D01*
X102820316Y-142521197D01*
X102823826Y-142544858D01*
X102825000Y-142568750D01*
X102825000Y-143056250D01*
X102823826Y-143080142D01*
X102820316Y-143103803D01*
X102814504Y-143127007D01*
X102806446Y-143149529D01*
X102796218Y-143171153D01*
X102783921Y-143191670D01*
X102769671Y-143210883D01*
X102753607Y-143228607D01*
X102735883Y-143244671D01*
X102716670Y-143258921D01*
X102696153Y-143271218D01*
X102674529Y-143281446D01*
X102652007Y-143289504D01*
X102628803Y-143295316D01*
X102605142Y-143298826D01*
X102581250Y-143300000D01*
X101668750Y-143300000D01*
X101644858Y-143298826D01*
X101621197Y-143295316D01*
X101597993Y-143289504D01*
X101575471Y-143281446D01*
X101553847Y-143271218D01*
X101533330Y-143258921D01*
X101514117Y-143244671D01*
X101496393Y-143228607D01*
X101480329Y-143210883D01*
X101466079Y-143191670D01*
X101453782Y-143171153D01*
X101443554Y-143149529D01*
X101435496Y-143127007D01*
X101429684Y-143103803D01*
X101426174Y-143080142D01*
X101425000Y-143056250D01*
X101425000Y-142568750D01*
X101426174Y-142544858D01*
X101429684Y-142521197D01*
X101435496Y-142497993D01*
X101443554Y-142475471D01*
X101453782Y-142453847D01*
X101466079Y-142433330D01*
X101480329Y-142414117D01*
X101496393Y-142396393D01*
X101514117Y-142380329D01*
X101533330Y-142366079D01*
X101553847Y-142353782D01*
X101575471Y-142343554D01*
X101597993Y-142335496D01*
X101621197Y-142329684D01*
X101644858Y-142326174D01*
X101668750Y-142325000D01*
X102581250Y-142325000D01*
X102605142Y-142326174D01*
G37*
G04 #@! TD.AperFunction*
G04 #@! TA.AperFunction,SMDPad,CuDef*
G36*
X100680142Y-142326174D02*
G01*
X100703803Y-142329684D01*
X100727007Y-142335496D01*
X100749529Y-142343554D01*
X100771153Y-142353782D01*
X100791670Y-142366079D01*
X100810883Y-142380329D01*
X100828607Y-142396393D01*
X100844671Y-142414117D01*
X100858921Y-142433330D01*
X100871218Y-142453847D01*
X100881446Y-142475471D01*
X100889504Y-142497993D01*
X100895316Y-142521197D01*
X100898826Y-142544858D01*
X100900000Y-142568750D01*
X100900000Y-143056250D01*
X100898826Y-143080142D01*
X100895316Y-143103803D01*
X100889504Y-143127007D01*
X100881446Y-143149529D01*
X100871218Y-143171153D01*
X100858921Y-143191670D01*
X100844671Y-143210883D01*
X100828607Y-143228607D01*
X100810883Y-143244671D01*
X100791670Y-143258921D01*
X100771153Y-143271218D01*
X100749529Y-143281446D01*
X100727007Y-143289504D01*
X100703803Y-143295316D01*
X100680142Y-143298826D01*
X100656250Y-143300000D01*
X99743750Y-143300000D01*
X99719858Y-143298826D01*
X99696197Y-143295316D01*
X99672993Y-143289504D01*
X99650471Y-143281446D01*
X99628847Y-143271218D01*
X99608330Y-143258921D01*
X99589117Y-143244671D01*
X99571393Y-143228607D01*
X99555329Y-143210883D01*
X99541079Y-143191670D01*
X99528782Y-143171153D01*
X99518554Y-143149529D01*
X99510496Y-143127007D01*
X99504684Y-143103803D01*
X99501174Y-143080142D01*
X99500000Y-143056250D01*
X99500000Y-142568750D01*
X99501174Y-142544858D01*
X99504684Y-142521197D01*
X99510496Y-142497993D01*
X99518554Y-142475471D01*
X99528782Y-142453847D01*
X99541079Y-142433330D01*
X99555329Y-142414117D01*
X99571393Y-142396393D01*
X99589117Y-142380329D01*
X99608330Y-142366079D01*
X99628847Y-142353782D01*
X99650471Y-142343554D01*
X99672993Y-142335496D01*
X99696197Y-142329684D01*
X99719858Y-142326174D01*
X99743750Y-142325000D01*
X100656250Y-142325000D01*
X100680142Y-142326174D01*
G37*
G04 #@! TD.AperFunction*
G04 #@! TA.AperFunction,SMDPad,CuDef*
G36*
X100680142Y-140451174D02*
G01*
X100703803Y-140454684D01*
X100727007Y-140460496D01*
X100749529Y-140468554D01*
X100771153Y-140478782D01*
X100791670Y-140491079D01*
X100810883Y-140505329D01*
X100828607Y-140521393D01*
X100844671Y-140539117D01*
X100858921Y-140558330D01*
X100871218Y-140578847D01*
X100881446Y-140600471D01*
X100889504Y-140622993D01*
X100895316Y-140646197D01*
X100898826Y-140669858D01*
X100900000Y-140693750D01*
X100900000Y-141181250D01*
X100898826Y-141205142D01*
X100895316Y-141228803D01*
X100889504Y-141252007D01*
X100881446Y-141274529D01*
X100871218Y-141296153D01*
X100858921Y-141316670D01*
X100844671Y-141335883D01*
X100828607Y-141353607D01*
X100810883Y-141369671D01*
X100791670Y-141383921D01*
X100771153Y-141396218D01*
X100749529Y-141406446D01*
X100727007Y-141414504D01*
X100703803Y-141420316D01*
X100680142Y-141423826D01*
X100656250Y-141425000D01*
X99743750Y-141425000D01*
X99719858Y-141423826D01*
X99696197Y-141420316D01*
X99672993Y-141414504D01*
X99650471Y-141406446D01*
X99628847Y-141396218D01*
X99608330Y-141383921D01*
X99589117Y-141369671D01*
X99571393Y-141353607D01*
X99555329Y-141335883D01*
X99541079Y-141316670D01*
X99528782Y-141296153D01*
X99518554Y-141274529D01*
X99510496Y-141252007D01*
X99504684Y-141228803D01*
X99501174Y-141205142D01*
X99500000Y-141181250D01*
X99500000Y-140693750D01*
X99501174Y-140669858D01*
X99504684Y-140646197D01*
X99510496Y-140622993D01*
X99518554Y-140600471D01*
X99528782Y-140578847D01*
X99541079Y-140558330D01*
X99555329Y-140539117D01*
X99571393Y-140521393D01*
X99589117Y-140505329D01*
X99608330Y-140491079D01*
X99628847Y-140478782D01*
X99650471Y-140468554D01*
X99672993Y-140460496D01*
X99696197Y-140454684D01*
X99719858Y-140451174D01*
X99743750Y-140450000D01*
X100656250Y-140450000D01*
X100680142Y-140451174D01*
G37*
G04 #@! TD.AperFunction*
D13*
X93075000Y-141559000D03*
X95615000Y-141559000D03*
X93075000Y-144699000D03*
X95615000Y-144699000D03*
D14*
X106325000Y-146600000D03*
X113350000Y-147125000D03*
X99650000Y-143000000D03*
X103775000Y-141800000D03*
X98675000Y-145100000D03*
X106450000Y-140900000D03*
X97550000Y-140900000D03*
X109525000Y-144800000D03*
D15*
X100200000Y-142812500D02*
X100287500Y-142812500D01*
X100287500Y-142812500D02*
X100150000Y-142950000D01*
X100150000Y-142950000D02*
X100150000Y-144675000D01*
X104225000Y-144025000D02*
X104575000Y-144025000D01*
X99650000Y-143000000D02*
X99875000Y-142775000D01*
X104865002Y-141800000D02*
X105575000Y-142509998D01*
X103775000Y-141800000D02*
X104865002Y-141800000D01*
X105575000Y-142509998D02*
X105575000Y-144025000D01*
X104575000Y-144025000D02*
X105575000Y-144025000D01*
X105575000Y-144025000D02*
X106750000Y-144025000D01*
X105575000Y-145850000D02*
X105575000Y-144025000D01*
X106325000Y-146600000D02*
X105575000Y-145850000D01*
D16*
X113650000Y-141875000D02*
X112775000Y-141000000D01*
X112775000Y-141000000D02*
X111275000Y-141000000D01*
X115000000Y-141875000D02*
X113650000Y-141875000D01*
X114712500Y-141875000D02*
X114975000Y-141875000D01*
X111900000Y-144425000D02*
X114125000Y-142200000D01*
X111650000Y-144675000D02*
X111575000Y-144750000D01*
X111900000Y-144425000D02*
X111650000Y-144675000D01*
X114712500Y-141875000D02*
X116840000Y-141875000D01*
D17*
X102150000Y-144837500D02*
X102187500Y-144837500D01*
X102187500Y-144837500D02*
X102350000Y-145000000D01*
X102350000Y-145000000D02*
X104300000Y-145000000D01*
X102125000Y-142812500D02*
X102237500Y-142812500D01*
X102237500Y-142812500D02*
X102475000Y-143050000D01*
X102475000Y-143050000D02*
X104100000Y-143050000D01*
D18*
X106925000Y-144975000D02*
X107300000Y-144975000D01*
X107300000Y-144975000D02*
X109025000Y-144975000D01*
X109525000Y-144800000D02*
X109075000Y-144800000D01*
D17*
X109050000Y-146900000D02*
X109475000Y-146900000D01*
X109475000Y-146900000D02*
X109700000Y-146675000D01*
X109700000Y-146675000D02*
X110925000Y-146675000D01*
X109078336Y-143064811D02*
X109435189Y-143064811D01*
X109435189Y-143064811D02*
X109525000Y-142975000D01*
X109525000Y-142975000D02*
X111125000Y-142975000D01*
X106925000Y-142500000D02*
X108450000Y-140975000D01*
X106925000Y-143075000D02*
X106925000Y-142500000D01*
X96817081Y-144400000D02*
X98250000Y-142967081D01*
X95615000Y-144400000D02*
X96817081Y-144400000D01*
X98250000Y-142967081D02*
X98250000Y-141850000D01*
X98250000Y-141850000D02*
X99275000Y-140825000D01*
X99275000Y-140825000D02*
X102100000Y-140825000D01*
X93075000Y-145500000D02*
X94050000Y-146475000D01*
X93075000Y-144400000D02*
X93075000Y-145500000D01*
X94050000Y-146475000D02*
X102125000Y-146475000D01*
X100175000Y-146712500D02*
X100562500Y-146712500D01*
X100562500Y-146712500D02*
X100600000Y-146675000D01*
X100600000Y-146675000D02*
X102050000Y-146675000D01*
D19*
G36*
X105614463Y-145654494D02*
G01*
X105693815Y-145751185D01*
X105790506Y-145830537D01*
X105900820Y-145889502D01*
X106020518Y-145925812D01*
X106145000Y-145938072D01*
X106706605Y-145938072D01*
X106731906Y-145945747D01*
X106876620Y-145960000D01*
X107961400Y-145960000D01*
X107861595Y-146081613D01*
X107779528Y-146235149D01*
X107728992Y-146401745D01*
X107711928Y-146574999D01*
X107711928Y-147225001D01*
X107715868Y-147265000D01*
X103429656Y-147265000D01*
X103471128Y-147128285D01*
X103488072Y-146956250D01*
X103488072Y-146468750D01*
X103471128Y-146296715D01*
X103420947Y-146131291D01*
X103339458Y-145978836D01*
X103287796Y-145915886D01*
X103320518Y-145925812D01*
X103445000Y-145938072D01*
X105005000Y-145938072D01*
X105129482Y-145925812D01*
X105249180Y-145889502D01*
X105359494Y-145830537D01*
X105456185Y-145751185D01*
X105535537Y-145654494D01*
X105575000Y-145580665D01*
X105614463Y-145654494D01*
G37*
X105614463Y-145654494D02*
X105693815Y-145751185D01*
X105790506Y-145830537D01*
X105900820Y-145889502D01*
X106020518Y-145925812D01*
X106145000Y-145938072D01*
X106706605Y-145938072D01*
X106731906Y-145945747D01*
X106876620Y-145960000D01*
X107961400Y-145960000D01*
X107861595Y-146081613D01*
X107779528Y-146235149D01*
X107728992Y-146401745D01*
X107711928Y-146574999D01*
X107711928Y-147225001D01*
X107715868Y-147265000D01*
X103429656Y-147265000D01*
X103471128Y-147128285D01*
X103488072Y-146956250D01*
X103488072Y-146468750D01*
X103471128Y-146296715D01*
X103420947Y-146131291D01*
X103339458Y-145978836D01*
X103287796Y-145915886D01*
X103320518Y-145925812D01*
X103445000Y-145938072D01*
X105005000Y-145938072D01*
X105129482Y-145925812D01*
X105249180Y-145889502D01*
X105359494Y-145830537D01*
X105456185Y-145751185D01*
X105535537Y-145654494D01*
X105575000Y-145580665D01*
X105614463Y-145654494D01*
G36*
X119265001Y-147265000D02*
G01*
X112306116Y-147265000D01*
X112370947Y-147143709D01*
X112421128Y-146978285D01*
X112438072Y-146806250D01*
X112438072Y-146318750D01*
X112421128Y-146146715D01*
X112370947Y-145981291D01*
X112289458Y-145828836D01*
X112190337Y-145708057D01*
X112208622Y-145698283D01*
X112338143Y-145591988D01*
X112741988Y-145188143D01*
X114920132Y-143010000D01*
X115267379Y-143010000D01*
X115300498Y-143119180D01*
X115314299Y-143145000D01*
X115300498Y-143170820D01*
X115264188Y-143290518D01*
X115251928Y-143415000D01*
X115251928Y-145415000D01*
X115264188Y-145539482D01*
X115300498Y-145659180D01*
X115359463Y-145769494D01*
X115438815Y-145866185D01*
X115535506Y-145945537D01*
X115645820Y-146004502D01*
X115765518Y-146040812D01*
X115890000Y-146053072D01*
X118390000Y-146053072D01*
X118514482Y-146040812D01*
X118634180Y-146004502D01*
X118744494Y-145945537D01*
X118841185Y-145866185D01*
X118920537Y-145769494D01*
X118979502Y-145659180D01*
X119015812Y-145539482D01*
X119028072Y-145415000D01*
X119028072Y-143415000D01*
X119015812Y-143290518D01*
X118979502Y-143170820D01*
X118965701Y-143145000D01*
X118979502Y-143119180D01*
X119015812Y-142999482D01*
X119028072Y-142875000D01*
X119028072Y-140875000D01*
X119015812Y-140750518D01*
X119011105Y-140735000D01*
X119265000Y-140735000D01*
X119265001Y-147265000D01*
G37*
X119265001Y-147265000D02*
X112306116Y-147265000D01*
X112370947Y-147143709D01*
X112421128Y-146978285D01*
X112438072Y-146806250D01*
X112438072Y-146318750D01*
X112421128Y-146146715D01*
X112370947Y-145981291D01*
X112289458Y-145828836D01*
X112190337Y-145708057D01*
X112208622Y-145698283D01*
X112338143Y-145591988D01*
X112741988Y-145188143D01*
X114920132Y-143010000D01*
X115267379Y-143010000D01*
X115300498Y-143119180D01*
X115314299Y-143145000D01*
X115300498Y-143170820D01*
X115264188Y-143290518D01*
X115251928Y-143415000D01*
X115251928Y-145415000D01*
X115264188Y-145539482D01*
X115300498Y-145659180D01*
X115359463Y-145769494D01*
X115438815Y-145866185D01*
X115535506Y-145945537D01*
X115645820Y-146004502D01*
X115765518Y-146040812D01*
X115890000Y-146053072D01*
X118390000Y-146053072D01*
X118514482Y-146040812D01*
X118634180Y-146004502D01*
X118744494Y-145945537D01*
X118841185Y-145866185D01*
X118920537Y-145769494D01*
X118979502Y-145659180D01*
X119015812Y-145539482D01*
X119028072Y-145415000D01*
X119028072Y-143415000D01*
X119015812Y-143290518D01*
X118979502Y-143170820D01*
X118965701Y-143145000D01*
X118979502Y-143119180D01*
X119015812Y-142999482D01*
X119028072Y-142875000D01*
X119028072Y-140875000D01*
X119015812Y-140750518D01*
X119011105Y-140735000D01*
X119265000Y-140735000D01*
X119265001Y-147265000D01*
G36*
X100327000Y-142685500D02*
G01*
X100347000Y-142685500D01*
X100347000Y-142939500D01*
X100327000Y-142939500D01*
X100327000Y-143776250D01*
X100363250Y-143812500D01*
X100302000Y-143873750D01*
X100302000Y-144710500D01*
X100322000Y-144710500D01*
X100322000Y-144964500D01*
X100302000Y-144964500D01*
X100302000Y-144984500D01*
X100048000Y-144984500D01*
X100048000Y-144964500D01*
X98998750Y-144964500D01*
X98840000Y-145123250D01*
X98836928Y-145325000D01*
X98849188Y-145449482D01*
X98885498Y-145569180D01*
X98944463Y-145679494D01*
X98973602Y-145715000D01*
X97253072Y-145715000D01*
X97253072Y-145025360D01*
X97357082Y-144940001D01*
X97380884Y-144910998D01*
X98761009Y-143530875D01*
X98790001Y-143507082D01*
X98813795Y-143478089D01*
X98813799Y-143478085D01*
X98872431Y-143406641D01*
X98874188Y-143424482D01*
X98910498Y-143544180D01*
X98969463Y-143654494D01*
X99048815Y-143751185D01*
X99127474Y-143815739D01*
X99120506Y-143819463D01*
X99023815Y-143898815D01*
X98944463Y-143995506D01*
X98885498Y-144105820D01*
X98849188Y-144225518D01*
X98836928Y-144350000D01*
X98840000Y-144551750D01*
X98998750Y-144710500D01*
X100048000Y-144710500D01*
X100048000Y-143873750D01*
X100011750Y-143837500D01*
X100073000Y-143776250D01*
X100073000Y-142939500D01*
X100053000Y-142939500D01*
X100053000Y-142685500D01*
X100073000Y-142685500D01*
X100073000Y-142665500D01*
X100327000Y-142665500D01*
X100327000Y-142685500D01*
G37*
X100327000Y-142685500D02*
X100347000Y-142685500D01*
X100347000Y-142939500D01*
X100327000Y-142939500D01*
X100327000Y-143776250D01*
X100363250Y-143812500D01*
X100302000Y-143873750D01*
X100302000Y-144710500D01*
X100322000Y-144710500D01*
X100322000Y-144964500D01*
X100302000Y-144964500D01*
X100302000Y-144984500D01*
X100048000Y-144984500D01*
X100048000Y-144964500D01*
X98998750Y-144964500D01*
X98840000Y-145123250D01*
X98836928Y-145325000D01*
X98849188Y-145449482D01*
X98885498Y-145569180D01*
X98944463Y-145679494D01*
X98973602Y-145715000D01*
X97253072Y-145715000D01*
X97253072Y-145025360D01*
X97357082Y-144940001D01*
X97380884Y-144910998D01*
X98761009Y-143530875D01*
X98790001Y-143507082D01*
X98813795Y-143478089D01*
X98813799Y-143478085D01*
X98872431Y-143406641D01*
X98874188Y-143424482D01*
X98910498Y-143544180D01*
X98969463Y-143654494D01*
X99048815Y-143751185D01*
X99127474Y-143815739D01*
X99120506Y-143819463D01*
X99023815Y-143898815D01*
X98944463Y-143995506D01*
X98885498Y-144105820D01*
X98849188Y-144225518D01*
X98836928Y-144350000D01*
X98840000Y-144551750D01*
X98998750Y-144710500D01*
X100048000Y-144710500D01*
X100048000Y-143873750D01*
X100011750Y-143837500D01*
X100073000Y-143776250D01*
X100073000Y-142939500D01*
X100053000Y-142939500D01*
X100053000Y-142685500D01*
X100073000Y-142685500D01*
X100073000Y-142665500D01*
X100327000Y-142665500D01*
X100327000Y-142685500D01*
G36*
X105668750Y-143898000D02*
G01*
X105750859Y-143898000D01*
X105790506Y-143930537D01*
X105900820Y-143989502D01*
X106017841Y-144025000D01*
X105900820Y-144060498D01*
X105790506Y-144119463D01*
X105750859Y-144152000D01*
X105668750Y-144152000D01*
X105575000Y-144245750D01*
X105481250Y-144152000D01*
X105399141Y-144152000D01*
X105359494Y-144119463D01*
X105249180Y-144060498D01*
X105132159Y-144025000D01*
X105249180Y-143989502D01*
X105359494Y-143930537D01*
X105399141Y-143898000D01*
X105481250Y-143898000D01*
X105575000Y-143804250D01*
X105668750Y-143898000D01*
G37*
X105668750Y-143898000D02*
X105750859Y-143898000D01*
X105790506Y-143930537D01*
X105900820Y-143989502D01*
X106017841Y-144025000D01*
X105900820Y-144060498D01*
X105790506Y-144119463D01*
X105750859Y-144152000D01*
X105668750Y-144152000D01*
X105575000Y-144245750D01*
X105481250Y-144152000D01*
X105399141Y-144152000D01*
X105359494Y-144119463D01*
X105249180Y-144060498D01*
X105132159Y-144025000D01*
X105249180Y-143989502D01*
X105359494Y-143930537D01*
X105399141Y-143898000D01*
X105481250Y-143898000D01*
X105575000Y-143804250D01*
X105668750Y-143898000D01*
G36*
X97738998Y-141286201D02*
G01*
X97710000Y-141309999D01*
X97686202Y-141338997D01*
X97686201Y-141338998D01*
X97615026Y-141425724D01*
X97544454Y-141557754D01*
X97529055Y-141608520D01*
X97505553Y-141686000D01*
X97500998Y-141701015D01*
X97486324Y-141850000D01*
X97490001Y-141887332D01*
X97490000Y-142652278D01*
X97244310Y-142897969D01*
X97253072Y-142809000D01*
X97250000Y-141844750D01*
X97091250Y-141686000D01*
X95742000Y-141686000D01*
X95742000Y-141706000D01*
X95488000Y-141706000D01*
X95488000Y-141686000D01*
X95468000Y-141686000D01*
X95468000Y-141432000D01*
X95488000Y-141432000D01*
X95488000Y-141412000D01*
X95742000Y-141412000D01*
X95742000Y-141432000D01*
X97091250Y-141432000D01*
X97250000Y-141273250D01*
X97251715Y-140735000D01*
X98290198Y-140735000D01*
X97738998Y-141286201D01*
G37*
X97738998Y-141286201D02*
X97710000Y-141309999D01*
X97686202Y-141338997D01*
X97686201Y-141338998D01*
X97615026Y-141425724D01*
X97544454Y-141557754D01*
X97529055Y-141608520D01*
X97505553Y-141686000D01*
X97500998Y-141701015D01*
X97486324Y-141850000D01*
X97490001Y-141887332D01*
X97490000Y-142652278D01*
X97244310Y-142897969D01*
X97253072Y-142809000D01*
X97250000Y-141844750D01*
X97091250Y-141686000D01*
X95742000Y-141686000D01*
X95742000Y-141706000D01*
X95488000Y-141706000D01*
X95488000Y-141686000D01*
X95468000Y-141686000D01*
X95468000Y-141432000D01*
X95488000Y-141432000D01*
X95488000Y-141412000D01*
X95742000Y-141412000D01*
X95742000Y-141432000D01*
X97091250Y-141432000D01*
X97250000Y-141273250D01*
X97251715Y-140735000D01*
X98290198Y-140735000D01*
X97738998Y-141286201D01*
G36*
X106413998Y-141936201D02*
G01*
X106385000Y-141959999D01*
X106361202Y-141988997D01*
X106361201Y-141988998D01*
X106290026Y-142075724D01*
X106270674Y-142111928D01*
X106145000Y-142111928D01*
X106020518Y-142124188D01*
X105900820Y-142160498D01*
X105790506Y-142219463D01*
X105693815Y-142298815D01*
X105614463Y-142395506D01*
X105575000Y-142469335D01*
X105535537Y-142395506D01*
X105456185Y-142298815D01*
X105359494Y-142219463D01*
X105249180Y-142160498D01*
X105129482Y-142124188D01*
X105005000Y-142111928D01*
X103445000Y-142111928D01*
X103337790Y-142122487D01*
X103314458Y-142078836D01*
X103204792Y-141945208D01*
X103119244Y-141875000D01*
X103204792Y-141804792D01*
X103314458Y-141671164D01*
X103395947Y-141518709D01*
X103446128Y-141353285D01*
X103463072Y-141181250D01*
X103463072Y-140735000D01*
X107615198Y-140735000D01*
X106413998Y-141936201D01*
G37*
X106413998Y-141936201D02*
X106385000Y-141959999D01*
X106361202Y-141988997D01*
X106361201Y-141988998D01*
X106290026Y-142075724D01*
X106270674Y-142111928D01*
X106145000Y-142111928D01*
X106020518Y-142124188D01*
X105900820Y-142160498D01*
X105790506Y-142219463D01*
X105693815Y-142298815D01*
X105614463Y-142395506D01*
X105575000Y-142469335D01*
X105535537Y-142395506D01*
X105456185Y-142298815D01*
X105359494Y-142219463D01*
X105249180Y-142160498D01*
X105129482Y-142124188D01*
X105005000Y-142111928D01*
X103445000Y-142111928D01*
X103337790Y-142122487D01*
X103314458Y-142078836D01*
X103204792Y-141945208D01*
X103119244Y-141875000D01*
X103204792Y-141804792D01*
X103314458Y-141671164D01*
X103395947Y-141518709D01*
X103446128Y-141353285D01*
X103463072Y-141181250D01*
X103463072Y-140735000D01*
X107615198Y-140735000D01*
X106413998Y-141936201D01*
M02*
