G04 #@! TF.GenerationSoftware,KiCad,Pcbnew,5.1.5-52549c5~86~ubuntu18.04.1*
G04 #@! TF.CreationDate,2020-04-08T17:49:12+09:00*
G04 #@! TF.ProjectId,MRR_PiFan,4d52525f-5069-4466-916e-2e6b69636164,rev?*
G04 #@! TF.SameCoordinates,Original*
G04 #@! TF.FileFunction,Copper,L2,Bot*
G04 #@! TF.FilePolarity,Positive*
%FSLAX46Y46*%
G04 Gerber Fmt 4.6, Leading zero omitted, Abs format (unit mm)*
G04 Created by KiCad (PCBNEW 5.1.5-52549c5~86~ubuntu18.04.1) date 2020-04-08 17:49:12*
%MOMM*%
%LPD*%
G04 APERTURE LIST*
%ADD10R,2.500000X2.000000*%
%ADD11R,2.000000X2.500000*%
%ADD12C,0.800000*%
%ADD13C,0.500000*%
%ADD14C,1.000000*%
%ADD15C,0.700000*%
%ADD16C,0.250000*%
%ADD17C,0.254000*%
G04 APERTURE END LIST*
D10*
X117140000Y-141875000D03*
X117140000Y-144415000D03*
D11*
X93075000Y-141559000D03*
X95615000Y-141559000D03*
X93075000Y-144699000D03*
X95615000Y-144699000D03*
D12*
X106325000Y-146600000D03*
X113350000Y-147125000D03*
X99650000Y-143000000D03*
X103775000Y-141800000D03*
X98675000Y-145100000D03*
X106450000Y-140900000D03*
X97550000Y-140900000D03*
X109525000Y-144800000D03*
D13*
X95590000Y-141850000D02*
X98500000Y-141850000D01*
X98500000Y-141850000D02*
X99650000Y-143000000D01*
X99650000Y-143000000D02*
X102575000Y-143000000D01*
X102575000Y-143000000D02*
X103775000Y-141800000D01*
D14*
X93050000Y-141850000D02*
X91700000Y-141850000D01*
X104374999Y-145700001D02*
X109150000Y-140925000D01*
X104374999Y-145700001D02*
X104374999Y-145725001D01*
X104374999Y-145725001D02*
X103150000Y-146950000D01*
X91700000Y-141850000D02*
X91600000Y-141850000D01*
X91600000Y-141850000D02*
X91000000Y-142450000D01*
X91000000Y-146425000D02*
X91525000Y-146950000D01*
X91000000Y-142450000D02*
X91000000Y-146425000D01*
X103150000Y-146950000D02*
X91525000Y-146950000D01*
D13*
X116765000Y-141950000D02*
X116840000Y-141875000D01*
D14*
X115890000Y-140925000D02*
X116840000Y-141875000D01*
X112909900Y-140925000D02*
X115890000Y-140925000D01*
X112909900Y-140925000D02*
X113850000Y-140925000D01*
X109150000Y-140925000D02*
X112909900Y-140925000D01*
D15*
X114650000Y-144800000D02*
X109525000Y-144800000D01*
D16*
X116455000Y-144800000D02*
X116840000Y-144415000D01*
D15*
X114650000Y-144800000D02*
X116455000Y-144800000D01*
D17*
G36*
X119265001Y-147265000D02*
G01*
X104440131Y-147265000D01*
X105138139Y-146566993D01*
X105181448Y-146531450D01*
X105323283Y-146358624D01*
X105325322Y-146354809D01*
X109620132Y-142060000D01*
X115251928Y-142060000D01*
X115251928Y-142875000D01*
X115264188Y-142999482D01*
X115300498Y-143119180D01*
X115314299Y-143145000D01*
X115300498Y-143170820D01*
X115264188Y-143290518D01*
X115251928Y-143415000D01*
X115251928Y-143815000D01*
X109851586Y-143815000D01*
X109826898Y-143804774D01*
X109626939Y-143765000D01*
X109423061Y-143765000D01*
X109223102Y-143804774D01*
X109034744Y-143882795D01*
X108865226Y-143996063D01*
X108721063Y-144140226D01*
X108607795Y-144309744D01*
X108529774Y-144498102D01*
X108490000Y-144698061D01*
X108490000Y-144901939D01*
X108529774Y-145101898D01*
X108607795Y-145290256D01*
X108721063Y-145459774D01*
X108865226Y-145603937D01*
X109034744Y-145717205D01*
X109223102Y-145795226D01*
X109423061Y-145835000D01*
X109626939Y-145835000D01*
X109826898Y-145795226D01*
X109851586Y-145785000D01*
X115372188Y-145785000D01*
X115438815Y-145866185D01*
X115535506Y-145945537D01*
X115645820Y-146004502D01*
X115765518Y-146040812D01*
X115890000Y-146053072D01*
X118390000Y-146053072D01*
X118514482Y-146040812D01*
X118634180Y-146004502D01*
X118744494Y-145945537D01*
X118841185Y-145866185D01*
X118920537Y-145769494D01*
X118979502Y-145659180D01*
X119015812Y-145539482D01*
X119028072Y-145415000D01*
X119028072Y-143415000D01*
X119015812Y-143290518D01*
X118979502Y-143170820D01*
X118965701Y-143145000D01*
X118979502Y-143119180D01*
X119015812Y-142999482D01*
X119028072Y-142875000D01*
X119028072Y-140875000D01*
X119015812Y-140750518D01*
X119011105Y-140735000D01*
X119265000Y-140735000D01*
X119265001Y-147265000D01*
G37*
X119265001Y-147265000D02*
X104440131Y-147265000D01*
X105138139Y-146566993D01*
X105181448Y-146531450D01*
X105323283Y-146358624D01*
X105325322Y-146354809D01*
X109620132Y-142060000D01*
X115251928Y-142060000D01*
X115251928Y-142875000D01*
X115264188Y-142999482D01*
X115300498Y-143119180D01*
X115314299Y-143145000D01*
X115300498Y-143170820D01*
X115264188Y-143290518D01*
X115251928Y-143415000D01*
X115251928Y-143815000D01*
X109851586Y-143815000D01*
X109826898Y-143804774D01*
X109626939Y-143765000D01*
X109423061Y-143765000D01*
X109223102Y-143804774D01*
X109034744Y-143882795D01*
X108865226Y-143996063D01*
X108721063Y-144140226D01*
X108607795Y-144309744D01*
X108529774Y-144498102D01*
X108490000Y-144698061D01*
X108490000Y-144901939D01*
X108529774Y-145101898D01*
X108607795Y-145290256D01*
X108721063Y-145459774D01*
X108865226Y-145603937D01*
X109034744Y-145717205D01*
X109223102Y-145795226D01*
X109423061Y-145835000D01*
X109626939Y-145835000D01*
X109826898Y-145795226D01*
X109851586Y-145785000D01*
X115372188Y-145785000D01*
X115438815Y-145866185D01*
X115535506Y-145945537D01*
X115645820Y-146004502D01*
X115765518Y-146040812D01*
X115890000Y-146053072D01*
X118390000Y-146053072D01*
X118514482Y-146040812D01*
X118634180Y-146004502D01*
X118744494Y-145945537D01*
X118841185Y-145866185D01*
X118920537Y-145769494D01*
X118979502Y-145659180D01*
X119015812Y-145539482D01*
X119028072Y-145415000D01*
X119028072Y-143415000D01*
X119015812Y-143290518D01*
X118979502Y-143170820D01*
X118965701Y-143145000D01*
X118979502Y-143119180D01*
X119015812Y-142999482D01*
X119028072Y-142875000D01*
X119028072Y-140875000D01*
X119015812Y-140750518D01*
X119011105Y-140735000D01*
X119265000Y-140735000D01*
X119265001Y-147265000D01*
G36*
X103611864Y-144858005D02*
G01*
X103568550Y-144893552D01*
X103426715Y-145066378D01*
X103424677Y-145070191D01*
X102679869Y-145815000D01*
X97253072Y-145815000D01*
X97253072Y-143449000D01*
X97240812Y-143324518D01*
X97204502Y-143204820D01*
X97163975Y-143129000D01*
X97204502Y-143053180D01*
X97240812Y-142933482D01*
X97253072Y-142809000D01*
X97250000Y-141844750D01*
X97091250Y-141686000D01*
X95742000Y-141686000D01*
X95742000Y-141706000D01*
X95488000Y-141706000D01*
X95488000Y-141686000D01*
X95468000Y-141686000D01*
X95468000Y-141432000D01*
X95488000Y-141432000D01*
X95488000Y-141412000D01*
X95742000Y-141412000D01*
X95742000Y-141432000D01*
X97091250Y-141432000D01*
X97250000Y-141273250D01*
X97251715Y-140735000D01*
X107734868Y-140735000D01*
X103611864Y-144858005D01*
G37*
X103611864Y-144858005D02*
X103568550Y-144893552D01*
X103426715Y-145066378D01*
X103424677Y-145070191D01*
X102679869Y-145815000D01*
X97253072Y-145815000D01*
X97253072Y-143449000D01*
X97240812Y-143324518D01*
X97204502Y-143204820D01*
X97163975Y-143129000D01*
X97204502Y-143053180D01*
X97240812Y-142933482D01*
X97253072Y-142809000D01*
X97250000Y-141844750D01*
X97091250Y-141686000D01*
X95742000Y-141686000D01*
X95742000Y-141706000D01*
X95488000Y-141706000D01*
X95488000Y-141686000D01*
X95468000Y-141686000D01*
X95468000Y-141432000D01*
X95488000Y-141432000D01*
X95488000Y-141412000D01*
X95742000Y-141412000D01*
X95742000Y-141432000D01*
X97091250Y-141432000D01*
X97250000Y-141273250D01*
X97251715Y-140735000D01*
X107734868Y-140735000D01*
X103611864Y-144858005D01*
M02*
